<svg id="Layer_1" data-name="Layer 1" xmlns="http://www.w3.org/2000/svg" viewBox="0 0 285.41 83.03"><defs><style>.cls-1{fill:#d7282f;}.cls-2{fill:#f4b223;}.cls-3{fill:#fff;}.cls-4{fill:#96262c;}.cls-5{fill:#ff9e18;}.cls-6{fill:#bbbdbf;}</style></defs><path class="cls-1" d="M58.08,55.11c.66,3-.08,3.3-1.64.64L35.3,19.8c-1.56-2.66-.3-5.06,2.7-5.34L43.37,14a6.55,6.55,0,0,1,6.77,5Z" transform="translate(0.01 0)"/><path class="cls-2" d="M100.46,72c-.66,8.56-9.63,18.62-21.14,2.37C66.78,56.64,61.48,32.94,59,22c-1.68-7.33.24-10.37,2.1-10.74,9.5-1.91,8.92,7.59,11,15.42,14.34,54.53,26.7,57.37,28.43,39.66a53.25,53.25,0,0,1-.06,5.65" transform="translate(0.01 0)"/><path class="cls-3" d="M.18,10.87c.82-8.55,10-18.45,21.18-2C33.56,26.8,38.43,50.6,40.73,61.6,42.27,69,40.3,72,38.43,72.3,28.9,74,29.66,64.54,27.73,56.67,14.38,1.92,2.07-1.16,0,16.53a56.12,56.12,0,0,1,.17-5.65" transform="translate(0.01 0)"/><path class="cls-4" d="M40.24,18c-1.17-2.49-6.3-1.25-5.24,1.16.07.14.12.26.18.36l.12.24,21.15,36,.24.42.09.15.15.21.1.15.11.15.12.15v.06a1.86,1.86,0,0,0,.43.41h0l.12.07h0a7.38,7.38,0,0,0-.62-1.82S44.66,27.39,40.24,18Z" transform="translate(0.01 0)"/><path class="cls-5" d="M92.66,82.86C87.47,84,75.73,70.24,66.46,32.79,63.72,21.7,64.56,15,58.83,13.52,58.19,15.23,58,18,59,22c2.51,11,7.81,34.65,20.35,52.36C84.45,81.59,89.07,83.6,92.66,82.86Z" transform="translate(0.01 0)"/><path class="cls-6" d="M189.66,60.5a2.24,2.24,0,0,1-1.77,2.19A2.27,2.27,0,0,1,189.66,65v.64c0,1.93-1.52,2.9-4.56,2.89H177c-.47,0-.71-.21-.71-.68s.25-.68.71-.68h8.39c1.7,0,2.57-.48,2.57-1.44V64.63c0-.77-.84-1.17-2.51-1.17H177c-.49,0-.73-.22-.73-.67a.64.64,0,0,1,.56-.71h8.63c1.66,0,2.5-.41,2.5-1.23v-1.1q0-1.17-2.55-1.17H177c-.49,0-.73-.23-.73-.68s.24-.68.73-.68h8c3.14,0,4.7.87,4.7,2.61Z" transform="translate(0.01 0)"/><path class="cls-6" d="M212.07,68.54c-2.54,0-3.81-.79-3.81-2.4V57.83q0-.69.84-.69t.87.69v8.31c0,.69.67,1,2,1h8c.42,0,.64.24.64.73a.56.56,0,0,1-.48.63H212Z" transform="translate(0.01 0)"/><path class="cls-6" d="M249.2,66.31c0,1.49-1.22,2.24-3.63,2.24h-7.5c-.43,0-.64-.23-.64-.69s.21-.67.64-.67h7.71c1.14,0,1.71-.45,1.71-1.34V64.53c0-.75-.71-1.12-2.16-1.12h-4.6c-2.54,0-3.81-.68-3.81-2V59.54c0-1.54,1.09-2.3,3.28-2.3H243c.43,0,.64.24.64.69s-.21.66-.64.66h-3c-.89,0-1.34.36-1.34,1.06v1.59c0,.58.62.85,1.85.85h4.69c2.72,0,4.07.77,4.07,2.3Z" transform="translate(0.01 0)"/><path class="cls-6" d="M272.52,58.5c-2.42,0-3.63.63-3.63,1.88v7.45c0,.47-.28.7-.85.7s-.81-.24-.81-.7V60.26c0-2.08,1.85-3.12,5.57-3.12h7.08c3.53,0,5.28,1,5.28,3.12v7.57c0,.47-.28.7-.84.7s-.87-.24-.87-.7V60.4c0-1.27-1.11-1.9-3.32-1.9Zm3,1.35c0-.48.28-.72.83-.72s.85.25.85.72v7.9a.74.74,0,0,1-.61.85h-.24c-.57,0-.83-.28-.83-.85Z" transform="translate(0.01 0)"/><path class="cls-6" d="M244.89,82.69a.32.32,0,0,1-.32.32h-1.78a.32.32,0,0,1-.33-.31h0v-1a.32.32,0,0,1,.33-.31h1.78a.31.31,0,0,1,.32.3h0Z" transform="translate(0.01 0)"/><path class="cls-6" d="M258.66,57.83c0-.46-.28-.69-.83-.69s-.89.23-.89.69v1.76h1.72Z" transform="translate(0.01 0)"/><path class="cls-6" d="M257,67.91c0,.46.29.69.86.69s.86-.23.86-.69V60.53H257Z" transform="translate(0.01 0)"/><path class="cls-6" d="M229.07,57.85c0-.47-.27-.7-.82-.7s-.89.24-.89.7v1.76h1.71Z" transform="translate(0.01 0)"/><path class="cls-6" d="M227.36,67.92c0,.46.28.69.85.69s.86-.25.86-.69V60.54h-1.7Z" transform="translate(0.01 0)"/><path class="cls-6" d="M200,57.82c0-.47-.28-.71-.83-.71s-.88.25-.88.71v1.75H200Z" transform="translate(0.01 0)"/><path class="cls-6" d="M198.27,67.88c0,.45.29.69.85.69s.86-.24.86-.69V60.5h-1.7Z" transform="translate(0.01 0)"/><path class="cls-1" d="M244.28,47.84a14.17,14.17,0,0,1-2.43-.22V52c.88,0,1.69.07,2.43.07s1.53,0,2.42-.07V47.6A14.08,14.08,0,0,1,244.28,47.84Z" transform="translate(0.01 0)"/><path class="cls-3" d="M142.45,28.68A6.72,6.72,0,0,0,139.24,27a16.54,16.54,0,0,0-3.21-.37H111.72a8.44,8.44,0,0,0-2,.26,2.94,2.94,0,0,0-1.81,1.25,3.37,3.37,0,0,0-.61,1.49,12.26,12.26,0,0,0-.11,1.36V51.82h5.56V32.66a4.81,4.81,0,0,1,.07-1,.75.75,0,0,1,.16-.35,1.72,1.72,0,0,1,.35-.25,2,2,0,0,1,.88-.13h8.94V51.8h5.56V30.94h6a9.72,9.72,0,0,1,1.7.19,2.82,2.82,0,0,1,1.64,1,3.53,3.53,0,0,1,.87,1.76,9.21,9.21,0,0,1,.2,1.81V51.82h5.54v-17a10.29,10.29,0,0,0-.59-3.52A7,7,0,0,0,142.45,28.68Z" transform="translate(0.01 0)"/><path class="cls-3" d="M189.08,39.83a2.29,2.29,0,0,1-.37-1.19,2.06,2.06,0,0,1,.25-1,4.39,4.39,0,0,1,.58-.78l.75-.82,10.37-9.36H194L185,35c-.24.29-.51.62-.78,1l-.36.51a3.89,3.89,0,0,0-.61,2.3,4.11,4.11,0,0,0,.59,2.27A9.39,9.39,0,0,0,185,42.62l10,9.21h6.9L189.89,41A8.8,8.8,0,0,1,189.08,39.83Z" transform="translate(0.01 0)"/><path class="cls-3" d="M176.22,36V51.82h5.57V17.53s-5.57,0-5.57,3.9Z" transform="translate(0.01 0)"/><path class="cls-3" d="M285.14,43.11a5.29,5.29,0,0,0-1.22-2.3,6.83,6.83,0,0,0-2.48-1.58c-1-.39-2.29-.82-3.8-1.27l-7.06-1.53a3.9,3.9,0,0,1-.67-.18l-.69-.24-.18-.07c-.3-.11-.6-.22-.88-.35a4,4,0,0,1-.71-.44,1.74,1.74,0,0,1-.69-.93,4.21,4.21,0,0,1-.12-1,5.55,5.55,0,0,1,.09-1,1.61,1.61,0,0,1,.6-.85,2,2,0,0,1,1-.42h16V26.69H266.8a8.8,8.8,0,0,0-1.62.24,5.69,5.69,0,0,0-1.49.66,5,5,0,0,0-1.29,1.22,5.56,5.56,0,0,0-1,2.18,9.77,9.77,0,0,0,0,4.17,5.65,5.65,0,0,0,.24.8,6.51,6.51,0,0,0,.73,1.38,6.17,6.17,0,0,0,2.15,1.78,15,15,0,0,0,3.37,1.25l6.51,1.35,2.13.61c.54.16,1,.3,1.31.43s.49.19.73.3a2.06,2.06,0,0,1,.4.25,1.78,1.78,0,0,1,.57.92,4.21,4.21,0,0,1,.12,1V46a1.39,1.39,0,0,1-.42.82,1.83,1.83,0,0,1-.92.6,3.73,3.73,0,0,1-.94.12H261.57v4.26h17.74a12.17,12.17,0,0,0,2-.16,4.44,4.44,0,0,0,2-.87,6.16,6.16,0,0,0,1.4-1.84,7.49,7.49,0,0,0,.68-3.52A10.55,10.55,0,0,0,285.14,43.11Z" transform="translate(0.01 0)"/><path class="cls-3" d="M257.55,36.82a7.4,7.4,0,0,0-.08-.81,15,15,0,0,0-.35-1.89,14,14,0,0,0-1-2.73A7.63,7.63,0,0,0,254.4,29a7.92,7.92,0,0,0-2.33-1.49,12.38,12.38,0,0,0-2.66-.81,17.44,17.44,0,0,0-2.7-.31h-4.92a18.89,18.89,0,0,0-2.71.31,13,13,0,0,0-2.66.82A8.13,8.13,0,0,0,234.11,29a7.34,7.34,0,0,0-1.75,2.35,14.22,14.22,0,0,0-1,2.76A15,15,0,0,0,231,36c0,.3-.07.61-.09.91q-.09,1.36-.09,2.4a21.35,21.35,0,0,0,.09,2.26,19,19,0,0,0,.4,2.71,12.54,12.54,0,0,0,.95,2.72,7.69,7.69,0,0,0,1.8,2.39,8.2,8.2,0,0,0,2.31,1.5,13.11,13.11,0,0,0,2.66.79c.36.07.72.12,1.07.17v-4.7a5.69,5.69,0,0,1-1.92-1.41,5.75,5.75,0,0,1-1.41-3.14,26.31,26.31,0,0,1-.21-3.32V37.83a15.09,15.09,0,0,1,.16-1.78h0a10.14,10.14,0,0,1,.47-1.8,5,5,0,0,1,.92-1.56,4.23,4.23,0,0,1,1.34-1.07A7.67,7.67,0,0,1,241,31a8.15,8.15,0,0,1,1.63-.26h3.07a7.76,7.76,0,0,1,1.59.26,6.45,6.45,0,0,1,1.52.61,5.59,5.59,0,0,1,1.35,1.07,4.52,4.52,0,0,1,1,1.58,9.93,9.93,0,0,1,.47,1.78h0a10.37,10.37,0,0,1,.15,1.76v1.51a25.17,25.17,0,0,1-.22,3.36,5.9,5.9,0,0,1-3.34,4.51V51.9l1.06-.16a14.19,14.19,0,0,0,2.7-.8,8,8,0,0,0,2.31-1.5,10.31,10.31,0,0,0,2.29-3.79,18.45,18.45,0,0,0,.92-6.47A8.88,8.88,0,0,0,257.55,36.82Z" transform="translate(0.01 0)"/><path class="cls-3" d="M172.22,30.91a5.59,5.59,0,0,0-3.56-3.71,8.54,8.54,0,0,0-3-.52h-12c-4,0-4,4.26-4,4.26h14.06a5.89,5.89,0,0,1,1.39.19,2.36,2.36,0,0,1,1.3.91,2.71,2.71,0,0,1,.61,1.19,6.62,6.62,0,0,1,.11,1.17V46.21a2.62,2.62,0,0,1,0,.56.88.88,0,0,1-.33.49,1.05,1.05,0,0,1-.65.27h-10a2.46,2.46,0,0,1-1-.25,2.38,2.38,0,0,1-.77-.52,2.26,2.26,0,0,1-.65-1.38,12.44,12.44,0,0,1-.08-1.37,5.54,5.54,0,0,1,.24-1.94c.12-.26.25-.52.39-.77a1.74,1.74,0,0,1,1.1-.73,5,5,0,0,1,.94-.14h9.19V36.18H154.66a11.46,11.46,0,0,0-2.19.22,5.09,5.09,0,0,0-2.42,1.26,5.33,5.33,0,0,0-1.77,2.84,15.12,15.12,0,0,0-.36,3.28v1.61a10.32,10.32,0,0,0,.26,1.84,7.9,7.9,0,0,0,.68,1.83,5.44,5.44,0,0,0,1.19,1.55,4.32,4.32,0,0,0,2.32,1.09,18.58,18.58,0,0,0,2.24.14h13.68a11.46,11.46,0,0,0,1.85-.16,3,3,0,0,0,1.62-.84,3.14,3.14,0,0,0,.82-1.62,8.62,8.62,0,0,0,.18-1.6v-13A11.12,11.12,0,0,0,172.22,30.91Z" transform="translate(0.01 0)"/><path class="cls-3" d="M222.22,21.65V45.42a6.49,6.49,0,0,1-.05.88,1.16,1.16,0,0,1-.37.86,1.13,1.13,0,0,1-.78.35H214.2a8.42,8.42,0,0,1-1.33-.11,5.67,5.67,0,0,1-1.4-.37,4.22,4.22,0,0,1-1.31-.85,4.28,4.28,0,0,1-1-1.52,11.36,11.36,0,0,1-.41-1.52,23.87,23.87,0,0,1-.27-4.14,21.48,21.48,0,0,1,.18-3,8.15,8.15,0,0,1,.16-.86,7.55,7.55,0,0,1,.75-2,4,4,0,0,1,2.24-1.84,9.05,9.05,0,0,1,2.42-.38h6.29V26.71h-7.37q-.77,0-1.83.09a11.29,11.29,0,0,0-2.23.44,9.17,9.17,0,0,0-2.34,1.12,7.77,7.77,0,0,0-2.07,2.09,9.78,9.78,0,0,0-1.61,4.16c-.07.48-.12,1-.17,1.44a27.26,27.26,0,0,0-.16,2.86,26.2,26.2,0,0,0,.38,5,15.56,15.56,0,0,0,.85,3,8.34,8.34,0,0,0,1.7,2.65,7.53,7.53,0,0,0,4.27,2.17,13.16,13.16,0,0,0,2.08.16H223.6a9.28,9.28,0,0,0,1.82-.18,2.66,2.66,0,0,0,1.64-1.09,3.54,3.54,0,0,0,.57-1.44,8,8,0,0,0,.19-1.69V17.76S222.22,17.76,222.22,21.65Z" transform="translate(0.01 0)"/></svg>